<svg width="484" height="134" viewBox="0 0 484 134" fill="none" xmlns="http://www.w3.org/2000/svg">
<g filter="url(#filter0_d)">
<path d="M56.8644 101.18C56.8644 98.8134 55.5792 96.9866 53.0182 95.7182C50.4478 94.4499 45.8267 93.1058 39.1549 91.705C32.4831 90.2947 27.2005 88.9127 23.307 87.5403C12.6945 83.8015 7.38355 78.7754 7.38355 72.4432C7.38355 69.1493 8.80107 66.2151 11.655 63.6405C14.4995 61.066 18.582 59.0499 23.9118 57.5922C29.2417 56.144 35.2142 55.4152 41.8482 55.4152C48.52 55.4152 54.4641 56.2008 59.69 57.7815C64.9065 59.3528 68.9606 61.5771 71.8523 64.4545L71.9374 64.5397C75.5095 68.1176 72.9769 74.2416 67.9211 74.2416C63.0354 74.2416 58.2914 72.4527 54.7381 69.0925C54.2184 68.6003 53.5947 68.146 52.8859 67.739C50.1926 66.1961 46.4031 65.42 41.5269 65.42C36.8207 65.42 33.1635 66.0731 30.5553 67.3698C27.947 68.6666 26.6429 70.3798 26.6429 72.4905C26.6429 74.4688 28.1738 76.1252 31.2357 77.4692C34.2975 78.8133 38.7958 80.0627 44.7399 81.2364C55.6926 83.385 63.6685 86.0448 68.6771 89.2251C73.6857 92.4054 76.1899 96.3619 76.1899 101.104C76.1899 106.376 73.1281 110.512 67.0139 113.503C60.8996 116.504 52.6591 117.999 42.3112 117.999C35.1197 117.999 28.5802 117.138 22.6739 115.425C16.7675 113.712 12.2504 111.355 9.15073 108.373C8.98062 108.212 8.81997 108.051 8.65932 107.881C5.08717 104.18 7.65761 97.9994 12.7985 97.9994H13.923C18.5347 97.9994 22.7495 100.195 25.868 103.603C28.6085 106.594 34.0802 108.08 42.2923 108.08C46.8662 108.08 50.4383 107.474 53.0088 106.263C55.5792 105.051 56.8644 103.357 56.8644 101.18Z" fill="white"/>
<path d="M154.465 66.4121H130.916V107.51C130.916 112.839 126.606 117.155 121.286 117.155C115.966 117.155 111.656 112.839 111.656 107.51V66.4121H88.5034C85.6967 66.4121 83.4287 64.1404 83.4287 61.3292C83.4287 58.5181 85.6967 56.2464 88.5034 56.2464H154.465C157.272 56.2464 159.54 58.5181 159.54 61.3292C159.54 64.1404 157.263 66.4121 154.465 66.4121Z" fill="white"/>
<path d="M231.607 55.3854C236.928 55.3854 241.237 59.7016 241.237 65.0305V96.37C241.237 103.033 238.043 108.306 231.645 112.177C225.247 116.058 216.516 117.989 205.431 117.989C194.525 117.989 185.859 116.105 179.443 112.338C173.026 108.571 169.756 103.403 169.624 96.8148V65.0116C169.624 59.6827 173.933 55.3665 179.254 55.3665C184.574 55.3665 188.883 59.6827 188.883 65.0116V96.4362C188.883 100.421 190.348 103.327 193.278 105.154C196.207 106.98 200.261 107.889 205.44 107.889C216.26 107.889 221.76 104.179 221.93 96.758V65.0305C221.93 59.7016 226.24 55.3854 231.56 55.3854H231.607Z" fill="white"/>
<path d="M291.802 101.673L310.494 60.3857C312.006 57.1013 315.295 55.0095 318.905 55.0095H318.952C325.955 55.0095 330.425 62.487 327.117 68.6678L306.61 107.92C303.7 113.372 298.02 116.78 291.84 116.78C285.65 116.78 279.97 113.363 277.06 107.892L256.647 68.6394C253.359 62.4586 257.829 55 264.822 55C268.441 55 271.72 57.1107 273.232 60.3952L291.802 101.673Z" fill="white"/>
<path d="M394.254 90.7661H362.199V107.084H400.548C403.326 107.084 405.585 109.337 405.585 112.129C405.585 114.912 403.336 117.174 400.548 117.174H357.37C349.404 117.174 342.949 110.709 342.949 102.73V70.6904C342.949 62.7112 349.404 56.2464 357.37 56.2464H400.378C403.184 56.2464 405.452 58.5181 405.452 61.3292C405.452 64.1404 403.184 66.4121 400.378 66.4121H362.199V80.9223H394.254C396.966 80.9223 399.159 83.1277 399.159 85.8348C399.159 88.5607 396.966 90.7661 394.254 90.7661Z" fill="white"/>
<path d="M436.119 107.072H471.963C474.742 107.072 477 109.324 477 112.117C477 114.899 474.751 117.162 471.963 117.162H431.29C423.324 117.162 416.869 110.697 416.869 102.718V65.027C416.869 59.698 421.178 55.3819 426.499 55.3819C431.819 55.3819 436.129 59.698 436.129 65.027V107.072H436.119Z" fill="white"/>
</g>
<path d="M20.3779 19.5898H15.71V30H9.85059V1.5625H20.417C23.7764 1.5625 26.3675 2.3112 28.1904 3.80859C30.0133 5.30599 30.9248 7.42188 30.9248 10.1562C30.9248 12.0964 30.5016 13.7174 29.6553 15.0195C28.8219 16.3086 27.5524 17.3372 25.8467 18.1055L31.999 29.7266V30H25.71L20.3779 19.5898ZM15.71 14.8438H20.4365C21.9079 14.8438 23.0472 14.4727 23.8545 13.7305C24.6618 12.9753 25.0654 11.9401 25.0654 10.625C25.0654 9.28385 24.6813 8.22917 23.9131 7.46094C23.1579 6.69271 21.9925 6.30859 20.417 6.30859H15.71V14.8438ZM46.8325 30C46.572 29.4922 46.3832 28.8607 46.2661 28.1055C44.8989 29.6289 43.1215 30.3906 40.934 30.3906C38.8637 30.3906 37.145 29.7917 35.7778 28.5938C34.4236 27.3958 33.7465 25.8854 33.7465 24.0625C33.7465 21.8229 34.5733 20.1042 36.227 18.9062C37.8937 17.7083 40.296 17.1029 43.434 17.0898H46.0317V15.8789C46.0317 14.9023 45.7778 14.1211 45.27 13.5352C44.7752 12.9492 43.9874 12.6562 42.9067 12.6562C41.9562 12.6562 41.2075 12.8841 40.6606 13.3398C40.1267 13.7956 39.8598 14.4206 39.8598 15.2148H34.2153C34.2153 13.9909 34.5929 12.8581 35.3481 11.8164C36.1033 10.7747 37.171 9.96094 38.5512 9.375C39.9314 8.77604 41.4809 8.47656 43.1996 8.47656C45.8038 8.47656 47.8676 9.13411 49.3911 10.4492C50.9275 11.7513 51.6957 13.5872 51.6957 15.957V25.1172C51.7088 27.1224 51.9887 28.6393 52.5356 29.668V30H46.8325ZM42.1645 26.0742C42.9978 26.0742 43.7661 25.8919 44.4692 25.5273C45.1723 25.1497 45.6931 24.6484 46.0317 24.0234V20.3906H43.9223C41.0968 20.3906 39.5929 21.3672 39.4106 23.3203L39.3911 23.6523C39.3911 24.3555 39.6384 24.9349 40.1332 25.3906C40.628 25.8464 41.3051 26.0742 42.1645 26.0742ZM60.787 8.86719L60.9628 11.3086C62.4732 9.42057 64.4979 8.47656 67.037 8.47656C69.2766 8.47656 70.9432 9.13411 72.037 10.4492C73.1307 11.7643 73.6906 13.7305 73.7167 16.3477V30H68.0721V16.4844C68.0721 15.2865 67.8117 14.4206 67.2909 13.8867C66.7701 13.3398 65.9042 13.0664 64.6932 13.0664C63.1047 13.0664 61.9133 13.7435 61.119 15.0977V30H55.4745V8.86719H60.787ZM76.6946 19.2773C76.6946 15.9831 77.4303 13.3594 78.9017 11.4062C80.3861 9.45312 82.4108 8.47656 84.9759 8.47656C87.0332 8.47656 88.7324 9.24479 90.0736 10.7812V0H95.7376V30H90.64L90.3665 27.7539C88.9603 29.5117 87.1504 30.3906 84.9368 30.3906C82.4499 30.3906 80.4512 29.4141 78.9407 27.4609C77.4433 25.4948 76.6946 22.7669 76.6946 19.2773ZM82.3392 19.6875C82.3392 21.6667 82.6842 23.1836 83.3743 24.2383C84.0644 25.293 85.067 25.8203 86.3821 25.8203C88.1269 25.8203 89.3574 25.0846 90.0736 23.6133V15.2734C89.3704 13.8021 88.153 13.0664 86.4212 13.0664C83.6999 13.0664 82.3392 15.2734 82.3392 19.6875ZM98.7937 19.2383C98.7937 17.1419 99.1974 15.2734 100.005 13.6328C100.812 11.9922 101.971 10.7227 103.481 9.82422C105.005 8.92578 106.769 8.47656 108.774 8.47656C111.626 8.47656 113.95 9.34896 115.747 11.0938C117.557 12.8385 118.566 15.2083 118.774 18.2031L118.813 19.6484C118.813 22.8906 117.908 25.4948 116.098 27.4609C114.289 29.4141 111.86 30.3906 108.813 30.3906C105.766 30.3906 103.331 29.4141 101.509 27.4609C99.6987 25.5078 98.7937 22.8516 98.7937 19.4922V19.2383ZM104.438 19.6484C104.438 21.6536 104.816 23.1901 105.571 24.2578C106.326 25.3125 107.407 25.8398 108.813 25.8398C110.18 25.8398 111.248 25.319 112.016 24.2773C112.785 23.2227 113.169 21.543 113.169 19.2383C113.169 17.2721 112.785 15.7487 112.016 14.668C111.248 13.5872 110.167 13.0469 108.774 13.0469C107.394 13.0469 106.326 13.5872 105.571 14.668C104.816 15.7357 104.438 17.3958 104.438 19.6484ZM127.143 8.86719L127.319 11.2305C128.816 9.39453 130.841 8.47656 133.393 8.47656C136.114 8.47656 137.983 9.55078 138.998 11.6992C140.483 9.55078 142.599 8.47656 145.346 8.47656C147.638 8.47656 149.343 9.14714 150.463 10.4883C151.583 11.8164 152.143 13.8216 152.143 16.5039V30H146.479V16.5234C146.479 15.3255 146.244 14.4531 145.776 13.9062C145.307 13.3464 144.48 13.0664 143.295 13.0664C141.602 13.0664 140.431 13.8737 139.779 15.4883L139.799 30H134.154V16.543C134.154 15.319 133.914 14.4336 133.432 13.8867C132.95 13.3398 132.13 13.0664 130.971 13.0664C129.369 13.0664 128.21 13.7305 127.494 15.0586V30H121.85V8.86719H127.143Z" fill="white"/>
<defs>
<filter id="filter0_d" x="0.103789" y="55" width="483.793" height="78.0457" filterUnits="userSpaceOnUse" color-interpolation-filters="sRGB">
<feFlood flood-opacity="0" result="BackgroundImageFix"/>
<feColorMatrix in="SourceAlpha" type="matrix" values="0 0 0 0 0 0 0 0 0 0 0 0 0 0 0 0 0 0 127 0" result="hardAlpha"/>
<feOffset dy="8.15007"/>
<feGaussianBlur stdDeviation="3.44811"/>
<feComposite in2="hardAlpha" operator="out"/>
<feColorMatrix type="matrix" values="0 0 0 0 0 0 0 0 0 0 0 0 0 0 0 0 0 0 0.25 0"/>
<feBlend mode="normal" in2="BackgroundImageFix" result="effect1_dropShadow"/>
<feBlend mode="normal" in="SourceGraphic" in2="effect1_dropShadow" result="shape"/>
</filter>
</defs>
</svg>
